<?xml version="1.0" standalone="no"?>
<svg viewBox="0 0 200 200" xmlns="http://www.w3.org/2000/svg">
  <path fill="#00FF6F" d="M51.2,-69.2C66.7,-59.1,79.9,-44.7,86.7,-27.4C93.4,-10,93.5,10.2,86.8,27.4C80.2,44.7,66.6,58.9,51,69.1C35.4,79.3,17.7,85.5,-0.2,85.7C-18.1,86,-36.1,80.3,-50.2,69.6C-64.3,58.9,-74.4,43.2,-79.9,26C-85.5,8.8,-86.6,-9.9,-81.2,-26.3C-75.7,-42.7,-63.7,-56.9,-49.1,-67.2C-34.4,-77.5,-17.2,-83.9,0.3,-84.3C17.8,-84.7,35.6,-79.2,51.2,-69.2Z" transform="translate(100 100)" />
</svg>
